<svg width="48" height="47" viewBox="0 0 48 47" fill="none" xmlns="http://www.w3.org/2000/svg">
<path d="M26.4301 37.7311C26.4732 33.4171 25.3562 29.909 23.9354 29.8954C22.5146 29.8819 21.3278 33.3679 21.2848 37.6818C21.2417 41.9957 22.3586 45.5039 23.7794 45.5174C25.2004 45.5311 26.3871 42.045 26.4301 37.7311Z" fill="#DA7E00"/>
<path d="M18.1886 36.7514C20.607 33.1452 21.6045 29.6027 20.4168 28.839C19.229 28.0753 16.3057 30.3797 13.8875 33.9859C11.4691 37.5921 10.4716 41.1345 11.6593 41.8982C12.8471 42.6619 15.7703 40.3575 18.1886 36.7514Z" fill="#DA7E00"/>
<path d="M11.7875 31.5774C15.8132 29.8241 18.6085 27.3722 18.0309 26.1009C17.4535 24.8297 13.7219 25.2206 9.6963 26.9739C5.67068 28.7272 2.87542 31.1791 3.4529 32.4503C4.03039 33.7216 7.76196 33.3308 11.7875 31.5774Z" fill="#DA7E00"/>
<path d="M17.5477 22.5359C17.7639 21.1608 14.409 19.514 10.0544 18.8577C5.69975 18.2014 1.9944 18.7842 1.77824 20.1593C1.56209 21.5344 4.91698 23.1811 9.27162 23.8374C13.6262 24.4938 17.3316 23.911 17.5477 22.5359Z" fill="#DA7E00"/>
<path d="M19.1113 19.2602C20.0523 18.2178 18.1388 15.0566 14.8375 12.1997C11.5361 9.34278 8.09706 7.87191 7.15608 8.91443C6.2151 9.95695 8.12857 13.1181 11.4299 15.975C14.7313 18.832 18.1704 20.3028 19.1113 19.2602Z" fill="#DA7E00"/>
<path d="M22.2258 17.3457C23.593 16.9669 23.7289 13.2946 22.5292 9.1435C21.3296 4.99238 19.2487 1.93433 17.8815 2.31316C16.5143 2.69199 16.3784 6.36421 17.578 10.5154C18.7777 14.6664 20.8585 17.7245 22.2258 17.3457Z" fill="#DA7E00"/>
<path d="M30.6802 10.6446C31.9632 6.51743 31.9013 2.84325 30.542 2.4381C29.1826 2.03294 27.0406 5.05021 25.7575 9.1774C24.4746 13.3045 24.5364 16.9787 25.8958 17.3838C27.2551 17.789 29.3972 14.7717 30.6802 10.6446Z" fill="#DA7E00"/>
<path d="M36.7219 16.2212C40.0797 13.428 42.056 10.3042 41.1359 9.24384C40.2159 8.18352 36.7481 9.58835 33.3904 12.3814C30.0326 15.1747 28.0565 18.2986 28.9765 19.3589C29.8964 20.4192 33.3642 19.0144 36.7219 16.2212Z" fill="#DA7E00"/>
<path d="M38.7187 24.1128C43.0857 23.5407 46.4731 21.9591 46.2846 20.58C46.0963 19.201 42.4034 18.5469 38.0363 19.1189C33.6694 19.6909 30.2819 21.2726 30.4704 22.6517C30.6588 24.0306 34.3517 24.6849 38.7187 24.1128Z" fill="#DA7E00"/>
<path d="M44.3522 32.8445C44.9552 31.5847 42.2099 29.0794 38.2204 27.2486C34.2309 25.4178 30.5079 24.9551 29.9049 26.2149C29.302 27.4748 32.0473 29.9801 36.0368 31.8109C40.0263 33.6415 43.7493 34.1044 44.3522 32.8445Z" fill="#DA7E00"/>
<path d="M35.96 42.1402C37.1628 41.3997 36.2368 37.8386 33.8916 34.1864C31.5464 30.5342 28.6701 28.174 27.4672 28.9145C26.2643 29.6551 27.1904 33.2161 29.5355 36.8683C31.8807 40.5205 34.7571 42.8809 35.96 42.1402Z" fill="#DA7E00"/>
</svg>
